<?xml version="1.0"?>
<svg xmlns="http://www.w3.org/2000/svg" id="Layer_2" data-name="Layer 2" viewBox="0 0 128 128" width="512" height="512"><title>BEAR</title><path d="M82.031,64.25a12.786,12.786,0,0,0-12.348-9.5H58.317a12.786,12.786,0,0,0-12.348,9.5L39.483,88.7A12.775,12.775,0,0,0,51.831,104.75H76.169A12.775,12.775,0,0,0,88.517,88.7Zm1.49,33.38a9.21,9.21,0,0,1-7.352,3.62H51.831A9.275,9.275,0,0,1,42.866,89.6l6.486-24.45a9.284,9.284,0,0,1,8.965-6.9H69.683a9.284,9.284,0,0,1,8.965,6.9L85.134,89.6A9.211,9.211,0,0,1,83.521,97.63Z"/><path d="M128,20.875V15.688A15.706,15.706,0,0,0,112.312,0h-5.187a20.123,20.123,0,0,0-18.5,12.267c-.151,0-8-.025-8-.025a17.635,17.635,0,0,0-12.53,5.179L64,21.5l-4.09-4.076a17.635,17.635,0,0,0-12.53-5.179s-7.851.02-8,.025A20.123,20.123,0,0,0,20.875,0H15.687A15.705,15.705,0,0,0,0,15.688v5.187A20.246,20.246,0,0,0,13.515,39.856C6.363,52.3,0,67.616,0,82.75a1.751,1.751,0,0,0,.287.96L10.365,99.056a64.166,64.166,0,0,0,107.27,0L127.713,83.71a1.751,1.751,0,0,0,.287-.96c0-15.134-6.363-30.452-13.515-42.894A20.246,20.246,0,0,0,128,20.875ZM15.328,36.785A16.728,16.728,0,0,1,3.5,20.875V15.688A12.2,12.2,0,0,1,15.687,3.5h5.188a16.63,16.63,0,0,1,14.934,9.35,13.727,13.727,0,0,0-5.623,3.342A10.168,10.168,0,0,0,20.875,10H15.687A5.694,5.694,0,0,0,10,15.688v5.187a10.138,10.138,0,0,0,9.053,10.067Q17.13,33.823,15.328,36.785ZM21.412,27.5H20.125A6.633,6.633,0,0,1,13.5,20.875V15.688A2.19,2.19,0,0,1,15.687,13.5h5.188a6.657,6.657,0,0,1,6.582,5.921C27.414,19.474,23.308,24.807,21.412,27.5Zm93.3,69.635a60.666,60.666,0,0,1-101.418,0L3.5,82.231c.151-15.014,6.863-30.294,14.124-42.488.009-.015.022-.025.031-.04C19.71,36.257,21.8,33.069,23.8,30.2q3.5-5.026,7.358-9.791c2.215-2.737,5.011-4.662,8.67-4.662H47.38A14.16,14.16,0,0,1,57.439,19.9l5.326,5.308a1.748,1.748,0,0,0,2.47,0L70.561,19.9A14.16,14.16,0,0,1,80.62,15.742h7.553c3.659,0,6.455,1.926,8.67,4.662q3.855,4.76,7.358,9.791c2,2.874,4.089,6.062,6.141,9.508.009.015.022.025.031.04,7.261,12.194,13.973,27.474,14.124,42.488ZM106.588,27.5q-2.905-4.125-6.045-8.079a6.657,6.657,0,0,1,6.582-5.921h5.187a2.19,2.19,0,0,1,2.188,2.188v5.187a6.633,6.633,0,0,1-6.625,6.625Zm6.084,9.285q-1.8-2.961-3.725-5.843A10.138,10.138,0,0,0,118,20.875V15.688A5.694,5.694,0,0,0,112.312,10h-5.187a10.168,10.168,0,0,0-9.311,6.192,13.7,13.7,0,0,0-5.623-3.342A16.63,16.63,0,0,1,107.125,3.5h5.187A12.2,12.2,0,0,1,124.5,15.688v5.187A16.728,16.728,0,0,1,112.672,36.785Z"/><path d="M78.167,90.25a16.258,16.258,0,0,1-11.972-5.276l-.445-.487V80.125h2.5a5.008,5.008,0,0,0,5-5V73.744a4.991,4.991,0,0,0-2.226-4.161l-4.248-2.834a4.988,4.988,0,0,0-5.553,0l-4.247,2.834a4.991,4.991,0,0,0-2.226,4.161v1.378a5.008,5.008,0,0,0,5,5h2.5v4.362l-.445.487A16.258,16.258,0,0,1,49.833,90.25a1.75,1.75,0,0,0,0,3.5A19.753,19.753,0,0,0,64,87.718,19.753,19.753,0,0,0,78.167,93.75a1.75,1.75,0,0,0,0-3.5ZM58.25,75.122V73.744a1.5,1.5,0,0,1,.669-1.25l4.246-2.833a1.5,1.5,0,0,1,1.669,0l4.247,2.834a1.5,1.5,0,0,1,.669,1.25v1.378a1.5,1.5,0,0,1-1.5,1.5H59.753A1.5,1.5,0,0,1,58.25,75.122Z"/><path d="M93.41,38.283l-5.855,1.17A19.3,19.3,0,0,0,75.147,47.93a1.75,1.75,0,0,0,1.236,2.677L85.041,51.8a7.743,7.743,0,0,0,8.424-5.274l1.952-5.983a1.749,1.749,0,0,0-2.007-2.259Zm-3.273,7.156a4.245,4.245,0,0,1-4.619,2.892l-5.659-.778a15.792,15.792,0,0,1,8.381-4.668l2.921-.584Z"/><path d="M42.959,51.8l8.658-1.192a1.75,1.75,0,0,0,1.236-2.677,19.3,19.3,0,0,0-12.408-8.477l-5.855-1.17a1.749,1.749,0,0,0-2.007,2.259l1.952,5.983A7.743,7.743,0,0,0,42.959,51.8Zm-5.1-6.36L36.839,42.3l2.921.584a15.792,15.792,0,0,1,8.381,4.668l-5.659.778A4.242,4.242,0,0,1,37.863,45.439Z"/></svg>
