<?xml version="1.0" encoding="UTF-8" standalone="no"?>
<!-- Created with Inkscape (http://www.inkscape.org/) -->

<svg
   xmlns:dc="http://purl.org/dc/elements/1.1/"
   xmlns:cc="http://creativecommons.org/ns#"
   xmlns:rdf="http://www.w3.org/1999/02/22-rdf-syntax-ns#"
   xmlns:svg="http://www.w3.org/2000/svg"
   xmlns="http://www.w3.org/2000/svg"
   xmlns:sodipodi="http://sodipodi.sourceforge.net/DTD/sodipodi-0.dtd"
   xmlns:inkscape="http://www.inkscape.org/namespaces/inkscape"
   width="210mm"
   height="297mm"
   viewBox="0 0 210 297"
   version="1.1"
   id="svg8"
   inkscape:version="0.92.4 5da689c313, 2019-01-14"
   sodipodi:docname="buff.svg">
  <defs
     id="defs2" />
  <sodipodi:namedview
     id="base"
     pagecolor="#ffffff"
     bordercolor="#666666"
     borderopacity="1.0"
     inkscape:pageopacity="0.0"
     inkscape:pageshadow="2"
     inkscape:zoom="0.7"
     inkscape:cx="442.61044"
     inkscape:cy="631.55102"
     inkscape:document-units="mm"
     inkscape:current-layer="layer1"
     showgrid="false"
     inkscape:window-width="1280"
     inkscape:window-height="948"
     inkscape:window-x="1600"
     inkscape:window-y="0"
     inkscape:window-maximized="1" />
  <metadata
     id="metadata5">
    <rdf:RDF>
      <cc:Work
         rdf:about="">
        <dc:format>image/svg+xml</dc:format>
        <dc:type
           rdf:resource="http://purl.org/dc/dcmitype/StillImage" />
        <dc:title></dc:title>
      </cc:Work>
    </rdf:RDF>
  </metadata>
  <g
     inkscape:label="Layer 1"
     inkscape:groupmode="layer"
     id="layer1">
    <g
       id="g4587"
       transform="translate(55.562501,-107.34524)">
      <path
         sodipodi:nodetypes="cccccccc"
         inkscape:connector-curvature="0"
         id="path4575"
         d="m 46.697859,197.21428 -21.832735,1e-5 12.060211,40.06546 -36.54735942,-14.74106 -6.4e-7,51.02678 35.81982406,-15.11904 -6.475814,38.93154 17.218383,0.37798"
         style="fill:none;stroke:#000000;stroke-width:0.21193236px;stroke-linecap:butt;stroke-linejoin:miter;stroke-opacity:1" />
      <path
         style="fill:none;stroke:#000000;stroke-width:0.21193236px;stroke-linecap:butt;stroke-linejoin:miter;stroke-opacity:1"
         d="m 46.697859,197.21428 21.832735,1e-5 -12.060211,40.06546 36.54736,-14.74106 v 51.02678 l -35.819824,-15.11904 6.475814,38.93154 -17.218383,0.37798"
         id="path4581"
         inkscape:connector-curvature="0"
         sodipodi:nodetypes="cccccccc" />
    </g>
    <g
       id="g4621">
      <path
         inkscape:connector-curvature="0"
         id="path4589"
         d="m 46.869047,114.05952 -18.520833,27.97024 16.630951,24.19048 -4.913688,-25.32441 z"
         style="fill:none;stroke:#000000;stroke-width:0.26458332px;stroke-linecap:butt;stroke-linejoin:miter;stroke-opacity:1" />
      <path
         style="fill:none;stroke:#000000;stroke-width:0.17269991px;stroke-linecap:butt;stroke-linejoin:miter;stroke-opacity:1"
         d="m 24.61335,123.48311 -11.818404,18.67485 10.612443,16.15123 -3.135493,-16.90832 z"
         id="path4617"
         inkscape:connector-curvature="0" />
    </g>
    <g
       id="g4627"
       transform="matrix(-1,0,0,1,205.21031,-3.4729396e-8)">
      <path
         style="fill:none;stroke:#000000;stroke-width:0.26458332px;stroke-linecap:butt;stroke-linejoin:miter;stroke-opacity:1"
         d="m 46.869047,114.05952 -18.520833,27.97024 16.630951,24.19048 -4.913688,-25.32441 z"
         id="path4623"
         inkscape:connector-curvature="0" />
      <path
         inkscape:connector-curvature="0"
         id="path4625"
         d="m 24.61335,123.48311 -11.818404,18.67485 10.612443,16.15123 -3.135493,-16.90832 z"
         style="fill:none;stroke:#000000;stroke-width:0.17269991px;stroke-linecap:butt;stroke-linejoin:miter;stroke-opacity:1" />
    </g>
    <path
       style="fill:#000000;stroke:#000000;stroke-width:1.42857146"
       d="m 328.96758,717.12183 c -2.85892,-0.38172 -4.64286,-1.42935 -4.64286,-2.72658 0,-1.15867 5.1697,-33.07571 11.48823,-70.92678 6.31852,-37.85106 11.30066,-69.86096 11.07143,-71.1331 -0.33342,-1.85029 -13.70588,3.30283 -66.84537,25.75903 l -66.42857,28.07202 -0.36749,-93.54091 c -0.20212,-51.4475 -0.0565,-93.85188 0.32356,-94.23196 0.38008,-0.38008 31.08116,11.56195 68.22463,26.53783 37.14347,14.97589 67.7393,26.66506 67.99073,25.97594 0.333,-0.9127 -29.7611,-103.02976 -43.45047,-147.43865 -0.72767,-2.3606 3.74087,-2.5 80.13618,-2.5 76.38104,0 80.86582,0.13984 80.17362,2.5 -0.40326,1.375 -10.45666,34.82689 -22.34089,74.33753 -11.88424,39.51065 -21.40119,72.41728 -21.14879,73.12585 0.2524,0.70856 30.8576,-10.96964 68.01156,-25.95156 37.15396,-14.98192 67.85504,-26.93747 68.22464,-26.56788 0.36959,0.36959 0.50662,42.7479 0.30449,94.17403 l -0.36749,93.50203 -66.42857,-28.07266 c -47.85418,-20.22314 -66.55964,-27.51987 -66.89735,-26.09566 -0.25783,1.08736 4.82931,33.78449 11.30475,72.66029 6.47545,38.87581 11.29427,71.16329 10.70852,71.74994 -1.12303,1.12475 -111.07313,1.85555 -119.04449,0.79125 z"
       id="path4629"
       inkscape:connector-curvature="0"
       transform="scale(0.26458333)" />
    <path
       style="fill:#000000;stroke:#000000;stroke-width:1.42857146"
       d="m 137.49158,578.85573 -28.84799,-42.00284 31.66702,-47.92518 c 17.41686,-26.35885 31.89823,-47.69398 32.18081,-47.41139 0.28258,0.28258 -4.60035,20.93932 -10.85096,45.90387 l -11.36475,45.39009 8.4844,43.57168 c 4.66642,23.96442 8.28079,43.77529 8.03193,44.02415 -0.24885,0.24886 -13.43406,-18.44881 -29.30046,-41.55038 z"
       id="path4631"
       inkscape:connector-curvature="0"
       transform="scale(0.26458333)" />
    <path
       style="fill:#000000;stroke:#000000;stroke-width:1.42857146"
       d="m 67.761077,565.01294 c -9.35428,-14.29328 -17.204246,-26.46132 -17.444368,-27.04007 -0.240122,-0.57876 8.599164,-15.35922 19.642858,-32.84548 11.043692,-17.48625 20.079442,-31.43929 20.079442,-31.00675 0,0.43254 -3.247432,14.19475 -7.216515,30.58268 l -7.216516,29.79624 5.149964,27.68206 c 2.832482,15.22513 4.894129,27.93789 4.58144,28.25058 -0.312688,0.31269 -8.222027,-11.12598 -17.576305,-25.41926 z"
       id="path4633"
       inkscape:connector-curvature="0"
       transform="scale(0.26458333)" />
    <path
       style="fill:#000000;stroke:#000000;stroke-width:1.42857146"
       d="m 608.61044,620.1249 c 0,-0.72598 3.78264,-20.80482 8.40588,-44.61964 l 8.40588,-43.29968 -11.25023,-43.83274 c -6.18763,-24.10801 -11.24946,-44.79703 -11.2485,-45.9756 9.6e-4,-1.17857 14.45817,19.60094 32.12714,46.17669 l 32.12539,48.31955 -6.21896,8.82331 c -3.42043,4.85282 -16.35989,23.60902 -28.75436,41.68045 -25.21361,36.76204 -23.59224,34.51286 -23.59224,32.72766 z"
       id="path4635"
       inkscape:connector-curvature="0"
       transform="scale(0.26458333)" />
    <path
       style="fill:#000000;stroke:#000000;stroke-width:1.42857146"
       d="m 690.04101,589.81485 c -10e-4,-1.02746 2.25452,-13.95435 5.01249,-28.72642 l 5.0145,-26.85831 -7.12005,-29.04898 c -3.91602,-15.97695 -6.90877,-29.26026 -6.65056,-29.51848 0.25822,-0.25821 9.25234,13.42438 19.98695,30.40576 l 19.51746,30.87523 -4.96837,8.08394 c -10.3822,16.8927 -30.7905,46.57636 -30.79242,44.78726 z"
       id="path4637"
       inkscape:connector-curvature="0"
       transform="scale(0.26458333)" />
  </g>
</svg>
