<svg id="Layer_1" enable-background="new 0 0 496.003 496.003" height="512" viewBox="0 0 496.003 496.003" width="512" xmlns="http://www.w3.org/2000/svg"><path d="m295.203 197.361c-6.39.27-12.39-3.31-15.14-9.09-17.319-36.37-54.231-60.2-95.47-60.2-63.021 0-110.036 55-105.47 111.23-44.34 2.95-79.47 40.14-79.12 85.29.37 46.75 39.11 84.13 85.86 84.13h213.8c58.09 0 105.39-47.09 105.73-105.1.358-58.479-48.228-108.642-110.19-106.26zm184.8 7.64h-18c-8.836 0-16-7.164-16-16s7.164-16 16-16h18c8.836 0 16 7.164 16 16s-7.164 16-16 16zm-173.153-155c-8.836 0-16-7.164-16-16v-18c0-8.836 7.164-16 16-16s16 7.164 16 16v18c0 8.837-7.163 16-16 16zm98.365 40.681c-6.249-6.248-6.249-16.379 0-22.627l12.728-12.728c6.249-6.249 16.379-6.249 22.627 0 6.249 6.248 6.249 16.379 0 22.627l-12.728 12.728c-6.248 6.248-16.379 6.249-22.627 0zm-219.311.108-12.728-12.728c-6.249-6.249-6.249-16.379 0-22.627 6.248-6.249 16.378-6.249 22.627 0l12.728 12.728c6.249 6.249 6.249 16.379 0 22.627-6.248 6.248-16.379 6.248-22.627 0zm-125.901 376.211c-8.836 0-16-7.164-16-16v-10c0-8.836 7.164-16 16-16s16 7.164 16 16v10c0 8.837-7.164 16-16 16zm70 29c-8.836 0-16-7.164-16-16v-39c0-8.836 7.164-16 16-16s16 7.164 16 16v39c0 8.837-7.164 16-16 16zm70-29c-8.836 0-16-7.164-16-16v-10c0-8.836 7.164-16 16-16s16 7.164 16 16v10c0 8.837-7.164 16-16 16zm70 29c-8.836 0-16-7.164-16-16v-39c0-8.836 7.164-16 16-16s16 7.164 16 16v39c0 8.837-7.164 16-16 16zm70-29c-8.836 0-16-7.164-16-16v-10c0-8.836 7.164-16 16-16s16 7.164 16 16v10c0 8.837-7.164 16-16 16zm-116.03-348.942c-5.31-2.155-6.823-8.955-2.812-13.048 22.955-23.423 55.029-36.946 89.267-35.959 85.037 2.452 141.065 91.384 106.121 169.185-2.51 5.588-10.148 6.346-13.749 1.391-20.786-28.6-53.589-49.951-93.317-55.202l-7.742.006c-5.904.005-11.274-3.274-14.117-8.448-14.747-26.836-37.518-47.319-63.651-57.925z"/></svg>