<svg height="406pt" viewBox="0 -16 406.75319 406" width="406pt" xmlns="http://www.w3.org/2000/svg"><path d="m7.550781 280.988281c.265625-.15625 27.757813-15.964843 68.359375-2.042969 19.808594 6.796876 38.773438 13.390626 53.507813 18.542969 17.09375 6.019531 35.078125 9.113281 53.199219 9.15625 10.089843.007813 20.15625-.996093 30.046874-2.992187 26.386719-5.347656 49.023438-19.429688 60.582032-37.667969 1.007812-1.511719 1.117187-3.445313.289062-5.058594-.828125-1.617187-2.46875-2.652343-4.28125-2.714843-1.8125-.058594-3.515625.867187-4.453125 2.421874-10.117187 16-30.351562 28.398438-54.113281 33.222657-26.039062 5.105469-52.96875 3.101562-77.960938-5.804688-14.75-5.160156-33.742187-11.761719-53.574218-18.566406-44.902344-15.398437-75.40625 2.136719-76.6875 2.894531-2.304688 1.4375-3.042969 4.449219-1.660156 6.789063 1.378906 2.335937 4.375 3.144531 6.746093 1.820312zm0 0"/><path d="m184.519531 236.34375c4.039063-.003906 7.996094-1.132812 11.429688-3.257812 28.882812-17.742188 47.515625-2.839844 49.820312-.816407.269531.269531.5625.511719.878907.722657 2.007812 1.339843 4.6875 1.054687 6.367187-.679688 1.679687-1.730469 1.882813-4.414062.484375-6.382812-.207031-.480469-.445312-1.199219-.769531-2.128907-11.875-33.722656-32.800781-45.941406-62.265625-36.34375-22.285156 7.265625-26.984375 18.835938-27.796875 25.082031-.933594 8.070313 2.898437 15.949219 9.816406 20.203126 3.578125 2.339843 7.757813 3.589843 12.035156 3.601562zm-11.9375-22.507812c.867188-6.65625 8.515625-12.800782 20.984375-16.871094 4.726563-1.628906 9.683594-2.5 14.683594-2.578125 16.34375 0 25.460938 11.148437 31.136719 23.097656-10.925781-4-27.902344-5.683594-48.667969 7.078125-3.933594 2.46875-8.953125 2.386719-12.800781-.210938-3.65625-2.191406-5.734375-6.285156-5.339844-10.53125zm0 0"/><path d="m36.132812 59.769531c.917969.101563 1.84375.152344 2.765626.152344 7.589843.15625 14.667968-3.800781 18.511718-10.347656 16.890625-29.328125 40.339844-25.171875 43.378906-24.492188.367188.113281.742188.1875 1.125.222657 2.589844.261718 4.9375-1.53125 5.371094-4.097657.441406-2.441406-.976562-4.832031-3.328125-5.625-.441406-.242187-1.101562-.671875-1.960937-1.199219-28.269532-17.746093-52.082032-18.632812-70.800782-2.640624-17.132812 14.648437-16.648437 26.769531-14.832031 32.695312 2.957031 8.582031 10.71875 14.601562 19.769531 15.332031zm1.554688-40.4375c6.597656-5.816406 15.105469-9 23.898438-8.941406 7.832031.210937 15.53125 2.089844 22.582031 5.511719-10.976563 2.589844-24.605469 9.890625-35.425781 28.683594-2.414063 3.914062-6.949219 5.988281-11.488282 5.246093-5.070312-.367187-9.476562-3.609375-11.335937-8.339843-1.890625-6.183594 2.289062-14.050782 11.769531-22.160157zm0 0"/><path d="m322.378906 180.832031c-1.289062-1.277343-3.171875-1.753906-4.914062-1.25-1.742188.507813-3.074219 1.917969-3.480469 3.6875-.402344 1.769531.183594 3.621094 1.535156 4.835938 16.984375 16 37.726563 51.789062 40.078125 131.253906.078125 2.703125 2.289063 4.851563 4.992188 4.851563h.152344c1.324218-.035157 2.582031-.601563 3.492187-1.566407.910156-.964843 1.398437-2.25 1.355469-3.578125-2.449219-82.882812-24.851563-120.921875-43.210938-138.234375zm0 0"/><path d="m305.574219 169.339844c-1.367188-.617188-2.785157-1.113282-4.238281-1.488282-2.691407-.625-5.378907 1.046876-6.003907 3.734376-.628906 2.691406 1.042969 5.378906 3.734375 6.003906.867188.25 1.71875.558594 2.539063.929687 2.542969 1.097657 5.488281-.074219 6.585937-2.617187 1.09375-2.539063-.078125-5.488282-2.617187-6.582032zm0 0"/><path d="m402.8125 319.945312c1.136719-7.53125 26.800781-185.167968-69.289062-260.289062-2.179688-1.667969-5.292969-1.269531-6.980469.890625-1.691407 2.160156-1.320313 5.28125.824219 6.988281 57.34375 44.832032 68.660156 131.355469 69.054687 190.125-6.519531-35.089844-17.789063-65.789062-33.113281-88.195312-16.363282-23.921875-48.085938-50.355469-83.714844-64.121094-3.816406-13.835938-16.253906-23.289062-21.796875-26.914062-.09375-9.441407-3.460937-36.242188-37.398437-45.617188-22.695313-6.273438-36.5625 2.164062-47.695313 8.941406-8.675781 5.28125-15.519531 9.457032-25.082031 6.882813-6.019532-1.574219-12.265625-2.101563-18.46875-1.558594 42.496094-21.832031 107.386718-30.511719 179.601562 8.316406 2.414063 1.191407 5.335938.253907 6.613282-2.113281 1.273437-2.371094.445312-5.324219-1.878907-6.6875-103.421875-55.621094-193.261719-17.878906-228.398437 21.066406-4.398438 4.867188-6.539063 11.367188-5.890625 17.898438.648437 6.53125 4.019531 12.484375 9.289062 16.394531 3.980469 2.949219 8.800781 4.535156 13.753907 4.527344 7.328124.015625 14.242187-3.40625 18.679687-9.242188 8.460937-11.15625 34.425781-26.234375 63.328125-23.117187 13.449219 1.152344 26.574219 4.742187 38.734375 10.59375 2.460937 1.257812 5.472656.285156 6.730469-2.171875 1.257812-2.460938.285156-5.472657-2.171875-6.730469-13.261719-6.421875-27.582031-10.367188-42.257813-11.648438-33.109375-3.574218-62.234375 13.660157-72.367187 27.019532-4.390625 5.804687-12.625 7.019531-18.503907 2.726562-3.007812-2.230468-4.933593-5.628906-5.300781-9.355468-.367187-3.726563.859375-7.433594 3.371094-10.210938 1.898437-2.101562 4-4.195312 6.214844-6.269531 1.894531-1.269531 24.152343-15.757813 46.324219-9.785157 13.683593 3.683594 23.445312-2.253906 32.882812-8 10.953125-6.671874 21.3125-12.96875 39.832031-7.84375 32.839844 9.070313 30.144531 36.96875 30 38.128907-.238281 2.023437.769531 3.988281 2.550781 4.972656 6.570313 3.882813 12.199219 9.164063 16.496094 15.46875-19.105468-6.027344-39.488281-6.757813-58.976562-2.113281-29.269532 7.675781-42.617188 22.660156-45.351563 34.121094-1.796875 6.246093.101563 12.96875 4.898438 17.351562 6.71875 5.945312 18.179687 6.523438 31.421875 1.601562 14.15625-5.269531 30.171875-2.191406 43.925781 8.449219 16.835937 13.03125 33.414063 40.644531 29.464844 79.074219-.207031 2.703125 1.773437 5.078125 4.472656 5.355469 2.695313.277343 5.121094-1.644531 5.46875-4.332031 3.660156-35.558594-9.09375-69.28125-33.289063-88-16.546874-12.800782-36.0625-16.425782-53.53125-9.914063-9.542968 3.550781-17.503906 3.648437-21.3125.285156-1.972656-1.972656-2.664062-4.890625-1.785156-7.542969 1.957032-8.242187 13.128906-20.199218 38.160156-26.765624 54.132813-14.1875 119.933594 30.320312 144.695313 66.558593 29.039063 42.460938 42.910156 116.570313 36.207031 193.410157-.113281 1.320312.300782 2.632812 1.152344 3.648437s2.074219 1.652344 3.394531 1.765625h.4375c2.59375-.003906 4.75-1.988281 4.976563-4.570312 1.414062-16.359376 1.917968-32.785157 1.507812-49.199219.019532-.070313.074219-.144531.089844-.253907zm0 0"/><path d="m302.136719 282.917969c-1.222657-.507813-2.601563-.511719-3.828125-.003907-1.222656.507813-2.195313 1.484376-2.703125 2.710938-26.828125 64.707031-163.230469 38.855469-204.398438 29.390625-2.667969-.558594-5.289062 1.117187-5.898437 3.773437-.613282 2.65625 1.015625 5.308594 3.65625 5.96875 34.964844 8.34375 70.722656 12.898438 106.65625 13.585938 47.550781 0 93.484375-10.90625 109.199218-48.875.515626-1.226562.523438-2.605469.019532-3.832031-.503906-1.230469-1.476563-2.207031-2.703125-2.71875zm0 0"/><path d="m73.050781 310.464844c-47.226562-14.371094-69.855469 0-70.800781.605468-2.3046875 1.519532-2.945312 4.621094-1.425781 6.925782 1.519531 2.308594 4.621093 2.945312 6.925781 1.425781.191406-.121094 19.601562-12.398437 62.378906.609375.472656.140625.964844.214844 1.457032.214844 2.476562.003906 4.582031-1.8125 4.949218-4.261719.363282-2.453125-1.121094-4.800781-3.492187-5.519531zm0 0"/></svg>